<mxfile host="app.diagrams.net" modified="2021-01-28T09:36:20.421Z" agent="5.0 (Windows NT 6.1; WOW64) AppleWebKit/537.36 (KHTML, like Gecko) Chrome/88.0.4324.104 Safari/537.36" etag="qMgs8hosyNphSpEDprXU" version="14.1.2" type="github">
  <diagram name="Page-1" id="e3a06f82-3646-2815-327d-82caf3d4e204">
    <mxGraphModel dx="1559" dy="924" grid="1" gridSize="10" guides="1" tooltips="1" connect="1" arrows="1" fold="1" page="1" pageScale="1.5" pageWidth="1169" pageHeight="826" background="none" math="0" shadow="0">
      <root>
        <mxCell id="0" style=";html=1;" />
        <mxCell id="1" style=";html=1;" parent="0" />
        <mxCell id="UbuHkIqYk3YwZygsSBv0-25" value="" style="rounded=0;whiteSpace=wrap;html=1;gradientColor=none;fillColor=none;dashed=1;" vertex="1" parent="1">
          <mxGeometry x="1037" y="80" width="640" height="1000" as="geometry" />
        </mxCell>
        <mxCell id="UbuHkIqYk3YwZygsSBv0-23" value="&lt;font style=&quot;font-size: 18px&quot;&gt;Internet&lt;/font&gt;" style="verticalLabelPosition=bottom;aspect=fixed;html=1;verticalAlign=top;strokeColor=none;align=center;outlineConnect=0;shape=mxgraph.citrix.cloud;gradientColor=none;rotation=0;" vertex="1" parent="1">
          <mxGeometry x="640" y="517.15" width="270" height="176.21" as="geometry" />
        </mxCell>
        <mxCell id="UbuHkIqYk3YwZygsSBv0-21" value="ISP 电信" style="ellipse;shape=cloud;whiteSpace=wrap;html=1;gradientColor=none;spacingBottom=100;" vertex="1" parent="1">
          <mxGeometry x="378" y="810" width="174" height="285" as="geometry" />
        </mxCell>
        <mxCell id="UbuHkIqYk3YwZygsSBv0-22" value="ISP 移动" style="ellipse;shape=cloud;whiteSpace=wrap;html=1;gradientColor=none;spacingBottom=201;" vertex="1" parent="1">
          <mxGeometry x="378" y="260" width="182" height="410" as="geometry" />
        </mxCell>
        <mxCell id="UbuHkIqYk3YwZygsSBv0-11" value="10.101.*.*" style="whiteSpace=wrap;html=1;fillColor=#f8cecc;fontSize=14;strokeColor=none;verticalAlign=top;" vertex="1" parent="1">
          <mxGeometry x="1117" y="480" width="522" height="200" as="geometry" />
        </mxCell>
        <mxCell id="6a7d8f32e03d9370-61" value="10.1.*.*" style="whiteSpace=wrap;html=1;fillColor=#f8cecc;fontSize=14;strokeColor=none;verticalAlign=top;" parent="1" vertex="1">
          <mxGeometry x="1117" y="120" width="522" height="320" as="geometry" />
        </mxCell>
        <mxCell id="6a7d8f32e03d9370-60" value="10.10.*.*" style="whiteSpace=wrap;html=1;fillColor=#d5e8d4;fontSize=14;strokeColor=none;verticalAlign=top;" parent="1" vertex="1">
          <mxGeometry x="1117" y="720" width="522" height="320" as="geometry" />
        </mxCell>
        <mxCell id="6a7d8f32e03d9370-58" value="宽带" style="whiteSpace=wrap;html=1;fillColor=#dae8fc;fontSize=14;strokeColor=none;verticalAlign=top;" parent="1" vertex="1">
          <mxGeometry y="863" width="310" height="217" as="geometry" />
        </mxCell>
        <mxCell id="6a7d8f32e03d9370-57" value="移动网络" style="whiteSpace=wrap;html=1;fillColor=#FFD470;gradientColor=none;fontSize=14;strokeColor=none;verticalAlign=top;" parent="1" vertex="1">
          <mxGeometry y="280" width="307" height="358" as="geometry" />
        </mxCell>
        <mxCell id="6a7d8f32e03d9370-36" style="edgeStyle=none;rounded=0;html=1;startSize=10;endSize=10;jettySize=auto;orthogonalLoop=1;fontSize=14;endArrow=none;endFill=0;strokeWidth=2;" parent="1" source="6a7d8f32e03d9370-1" target="6a7d8f32e03d9370-14" edge="1">
          <mxGeometry relative="1" as="geometry" />
        </mxCell>
        <mxCell id="6a7d8f32e03d9370-1" value="Client" style="verticalLabelPosition=bottom;aspect=fixed;html=1;verticalAlign=top;strokeColor=none;shape=mxgraph.citrix.laptop_2;fillColor=#66B2FF;gradientColor=#0066CC;fontSize=14;" parent="1" vertex="1">
          <mxGeometry x="134.4999999999999" y="928.25" width="116" height="86.5" as="geometry" />
        </mxCell>
        <mxCell id="6a7d8f32e03d9370-35" style="edgeStyle=none;rounded=0;html=1;startSize=10;endSize=10;jettySize=auto;orthogonalLoop=1;fontSize=14;endArrow=none;endFill=0;strokeWidth=2;" parent="1" source="6a7d8f32e03d9370-2" target="6a7d8f32e03d9370-9" edge="1">
          <mxGeometry relative="1" as="geometry" />
        </mxCell>
        <mxCell id="6a7d8f32e03d9370-2" value="Client" style="verticalLabelPosition=bottom;aspect=fixed;html=1;verticalAlign=top;strokeColor=none;shape=mxgraph.citrix.laptop_2;fillColor=#66B2FF;gradientColor=#0066CC;fontSize=14;" parent="1" vertex="1">
          <mxGeometry x="119.99999999999989" y="509" width="116" height="86.5" as="geometry" />
        </mxCell>
        <mxCell id="UbuHkIqYk3YwZygsSBv0-6" value="" style="rounded=0;orthogonalLoop=1;jettySize=auto;html=1;endArrow=none;endFill=0;" edge="1" parent="1" source="6a7d8f32e03d9370-6" target="UbuHkIqYk3YwZygsSBv0-2">
          <mxGeometry relative="1" as="geometry" />
        </mxCell>
        <mxCell id="6a7d8f32e03d9370-6" value="Client" style="verticalLabelPosition=bottom;aspect=fixed;html=1;verticalAlign=top;strokeColor=none;shape=mxgraph.citrix.pda;fillColor=#66B2FF;gradientColor=#0066CC;fontSize=14;" parent="1" vertex="1">
          <mxGeometry x="1527" y="340" width="30" height="61" as="geometry" />
        </mxCell>
        <mxCell id="6a7d8f32e03d9370-40" style="edgeStyle=none;rounded=0;html=1;startSize=10;endSize=10;jettySize=auto;orthogonalLoop=1;fontSize=14;endArrow=classic;endFill=1;strokeWidth=2;startArrow=classic;startFill=1;" parent="1" source="6a7d8f32e03d9370-9" target="UbuHkIqYk3YwZygsSBv0-23" edge="1">
          <mxGeometry relative="1" as="geometry">
            <mxPoint x="759" y="679.6051805337522" as="targetPoint" />
          </mxGeometry>
        </mxCell>
        <mxCell id="6a7d8f32e03d9370-9" value="" style="verticalLabelPosition=bottom;aspect=fixed;html=1;verticalAlign=top;strokeColor=none;shape=mxgraph.citrix.xenapp_server;fillColor=#66B2FF;gradientColor=#0066CC;fontSize=14;" parent="1" vertex="1">
          <mxGeometry x="440.0000000000001" y="516" width="76" height="89" as="geometry" />
        </mxCell>
        <mxCell id="6a7d8f32e03d9370-41" style="edgeStyle=none;rounded=0;html=1;startSize=10;endSize=10;jettySize=auto;orthogonalLoop=1;fontSize=14;endArrow=classic;endFill=1;strokeWidth=2;startArrow=classic;startFill=1;" parent="1" source="6a7d8f32e03d9370-10" target="UbuHkIqYk3YwZygsSBv0-23" edge="1">
          <mxGeometry relative="1" as="geometry">
            <mxPoint x="759" y="518.019623233909" as="targetPoint" />
          </mxGeometry>
        </mxCell>
        <mxCell id="6a7d8f32e03d9370-10" value="" style="verticalLabelPosition=bottom;aspect=fixed;html=1;verticalAlign=top;strokeColor=none;shape=mxgraph.citrix.xenapp_server;fillColor=#66B2FF;gradientColor=#0066CC;fontSize=14;" parent="1" vertex="1">
          <mxGeometry x="439.9999999999999" y="380" width="76" height="89" as="geometry" />
        </mxCell>
        <mxCell id="6a7d8f32e03d9370-50" style="edgeStyle=none;rounded=0;html=1;startSize=10;endSize=10;jettySize=auto;orthogonalLoop=1;fontSize=14;endArrow=classic;endFill=1;strokeWidth=2;startArrow=classic;startFill=1;" parent="1" source="UbuHkIqYk3YwZygsSBv0-23" target="6a7d8f32e03d9370-16" edge="1">
          <mxGeometry relative="1" as="geometry" />
        </mxCell>
        <mxCell id="6a7d8f32e03d9370-52" style="edgeStyle=none;rounded=0;html=1;startSize=10;endSize=10;jettySize=auto;orthogonalLoop=1;fontSize=14;endArrow=none;endFill=0;strokeWidth=2;exitX=0.402;exitY=0.639;exitDx=0;exitDy=0;exitPerimeter=0;" parent="1" source="UbuHkIqYk3YwZygsSBv0-12" target="6a7d8f32e03d9370-26" edge="1">
          <mxGeometry relative="1" as="geometry" />
        </mxCell>
        <mxCell id="6a7d8f32e03d9370-56" style="edgeStyle=none;rounded=0;html=1;startSize=10;endSize=10;jettySize=auto;orthogonalLoop=1;fontSize=14;endArrow=none;endFill=0;strokeWidth=1;exitX=0.54;exitY=0.437;exitDx=0;exitDy=0;exitPerimeter=0;" parent="1" source="UbuHkIqYk3YwZygsSBv0-7" target="UbuHkIqYk3YwZygsSBv0-10" edge="1">
          <mxGeometry relative="1" as="geometry" />
        </mxCell>
        <mxCell id="UbuHkIqYk3YwZygsSBv0-24" value="" style="edgeStyle=none;rounded=0;orthogonalLoop=1;jettySize=auto;html=1;startArrow=classic;startFill=1;endArrow=classic;endFill=1;strokeWidth=2;" edge="1" parent="1" source="6a7d8f32e03d9370-13" target="UbuHkIqYk3YwZygsSBv0-23">
          <mxGeometry relative="1" as="geometry" />
        </mxCell>
        <mxCell id="6a7d8f32e03d9370-13" value="113.105.120.100" style="verticalLabelPosition=bottom;aspect=fixed;html=1;verticalAlign=top;strokeColor=none;shape=mxgraph.citrix.router;fillColor=#66B2FF;gradientColor=#0066CC;fontSize=14;fontColor=#0000FF;" parent="1" vertex="1">
          <mxGeometry x="1020" y="517.15" width="55" height="36.5" as="geometry" />
        </mxCell>
        <mxCell id="6a7d8f32e03d9370-38" style="edgeStyle=none;rounded=0;html=1;startSize=10;endSize=10;jettySize=auto;orthogonalLoop=1;fontSize=14;endArrow=classic;endFill=1;strokeWidth=2;startArrow=classic;startFill=1;" parent="1" source="6a7d8f32e03d9370-14" target="UbuHkIqYk3YwZygsSBv0-23" edge="1">
          <mxGeometry relative="1" as="geometry">
            <mxPoint x="637" y="880.1642857142858" as="targetPoint" />
          </mxGeometry>
        </mxCell>
        <mxCell id="6a7d8f32e03d9370-14" value="" style="verticalLabelPosition=bottom;aspect=fixed;html=1;verticalAlign=top;strokeColor=none;shape=mxgraph.citrix.xenclient_synchronizer;fillColor=#CCCCCC;gradientColor=#000000;gradientDirection=south;fontSize=14;" parent="1" vertex="1">
          <mxGeometry x="426.9999999999999" y="937.25" width="76" height="91" as="geometry" />
        </mxCell>
        <mxCell id="6a7d8f32e03d9370-16" value="DNS" style="verticalLabelPosition=bottom;aspect=fixed;html=1;verticalAlign=top;strokeColor=none;shape=mxgraph.citrix.chassis;fillColor=#66B2FF;gradientColor=#0066CC;fontSize=14;" parent="1" vertex="1">
          <mxGeometry x="706.25" y="902.5" width="137.5" height="177.5" as="geometry" />
        </mxCell>
        <mxCell id="6a7d8f32e03d9370-23" value="" style="verticalLabelPosition=bottom;aspect=fixed;html=1;verticalAlign=top;strokeColor=none;shape=mxgraph.citrix.home_office;fillColor=#66B2FF;gradientColor=#0066CC;fontSize=14;" parent="1" vertex="1">
          <mxGeometry x="20.5" y="955" width="80" height="55.5" as="geometry" />
        </mxCell>
        <mxCell id="6a7d8f32e03d9370-53" style="edgeStyle=none;rounded=0;html=1;startSize=10;endSize=10;jettySize=auto;orthogonalLoop=1;fontSize=14;endArrow=none;endFill=0;strokeWidth=1;" parent="1" source="6a7d8f32e03d9370-26" target="6a7d8f32e03d9370-29" edge="1">
          <mxGeometry relative="1" as="geometry" />
        </mxCell>
        <mxCell id="6a7d8f32e03d9370-54" style="edgeStyle=none;rounded=0;html=1;startSize=10;endSize=10;jettySize=auto;orthogonalLoop=1;fontSize=14;endArrow=none;endFill=0;strokeWidth=1;" parent="1" source="6a7d8f32e03d9370-26" target="6a7d8f32e03d9370-28" edge="1">
          <mxGeometry relative="1" as="geometry" />
        </mxCell>
        <mxCell id="6a7d8f32e03d9370-55" style="edgeStyle=none;rounded=0;html=1;startSize=10;endSize=10;jettySize=auto;orthogonalLoop=1;fontSize=14;endArrow=none;endFill=0;strokeWidth=1;entryX=0.566;entryY=0.7;entryDx=0;entryDy=0;entryPerimeter=0;" parent="1" source="UbuHkIqYk3YwZygsSBv0-2" target="UbuHkIqYk3YwZygsSBv0-1" edge="1">
          <mxGeometry relative="1" as="geometry">
            <mxPoint x="1474" y="332.82952286282284" as="targetPoint" />
          </mxGeometry>
        </mxCell>
        <mxCell id="UbuHkIqYk3YwZygsSBv0-3" value="" style="rounded=0;orthogonalLoop=1;jettySize=auto;html=1;endArrow=none;endFill=0;" edge="1" parent="1" source="6a7d8f32e03d9370-26" target="UbuHkIqYk3YwZygsSBv0-2">
          <mxGeometry relative="1" as="geometry" />
        </mxCell>
        <mxCell id="6a7d8f32e03d9370-26" value="" style="verticalLabelPosition=bottom;aspect=fixed;html=1;verticalAlign=top;strokeColor=none;shape=mxgraph.citrix.switch;fillColor=#66B2FF;gradientColor=#0066CC;fontSize=14;" parent="1" vertex="1">
          <mxGeometry x="1148" y="377" width="92" height="41.5" as="geometry" />
        </mxCell>
        <mxCell id="6a7d8f32e03d9370-28" value="10.1.21.131" style="verticalLabelPosition=top;aspect=fixed;html=1;verticalAlign=bottom;strokeColor=none;shape=mxgraph.citrix.thin_client;fillColor=#66B2FF;gradientColor=#0066CC;fontSize=14;labelPosition=center;align=center;" parent="1" vertex="1">
          <mxGeometry x="1240" y="170" width="71" height="71" as="geometry" />
        </mxCell>
        <mxCell id="6a7d8f32e03d9370-29" value="10.1.21.129" style="verticalLabelPosition=top;aspect=fixed;html=1;verticalAlign=bottom;strokeColor=none;shape=mxgraph.citrix.thin_client;fillColor=#66B2FF;gradientColor=#0066CC;fontSize=14;labelPosition=center;align=center;" parent="1" vertex="1">
          <mxGeometry x="1148" y="170" width="71" height="71" as="geometry" />
        </mxCell>
        <mxCell id="6a7d8f32e03d9370-62" value="Network Access" style="text;strokeColor=none;fillColor=none;html=1;fontSize=24;fontStyle=1;verticalAlign=middle;align=center;" parent="1" vertex="1">
          <mxGeometry x="499" y="30" width="861" height="40" as="geometry" />
        </mxCell>
        <mxCell id="UbuHkIqYk3YwZygsSBv0-1" value="Client" style="verticalLabelPosition=bottom;aspect=fixed;html=1;verticalAlign=top;strokeColor=none;shape=mxgraph.citrix.laptop_2;fillColor=#66B2FF;gradientColor=#0066CC;fontSize=14;" vertex="1" parent="1">
          <mxGeometry x="1397" y="240" width="101.92" height="76" as="geometry" />
        </mxCell>
        <mxCell id="UbuHkIqYk3YwZygsSBv0-2" value="" style="verticalLabelPosition=bottom;aspect=fixed;html=1;verticalAlign=top;strokeColor=none;shape=mxgraph.citrix.switch;fillColor=#66B2FF;gradientColor=#0066CC;fontSize=14;" vertex="1" parent="1">
          <mxGeometry x="1352" y="377" width="92" height="41.5" as="geometry" />
        </mxCell>
        <mxCell id="UbuHkIqYk3YwZygsSBv0-9" value="" style="edgeStyle=none;rounded=0;orthogonalLoop=1;jettySize=auto;html=1;strokeWidth=2;startArrow=none;startFill=0;endArrow=none;endFill=0;entryX=0.304;entryY=0.831;entryDx=0;entryDy=0;entryPerimeter=0;" edge="1" parent="1" source="UbuHkIqYk3YwZygsSBv0-7" target="UbuHkIqYk3YwZygsSBv0-12">
          <mxGeometry relative="1" as="geometry">
            <mxPoint x="1068" y="792.25" as="targetPoint" />
          </mxGeometry>
        </mxCell>
        <mxCell id="UbuHkIqYk3YwZygsSBv0-7" value="" style="verticalLabelPosition=bottom;aspect=fixed;html=1;verticalAlign=top;strokeColor=none;shape=mxgraph.citrix.switch;fillColor=#66B2FF;gradientColor=#0066CC;fontSize=14;" vertex="1" parent="1">
          <mxGeometry x="1148" y="771.5" width="92" height="41.5" as="geometry" />
        </mxCell>
        <mxCell id="UbuHkIqYk3YwZygsSBv0-10" value="10.10.204.38" style="verticalLabelPosition=bottom;aspect=fixed;html=1;verticalAlign=top;strokeColor=none;shape=mxgraph.citrix.xenapp_server;fillColor=#66B2FF;gradientColor=#0066CC;fontSize=14;" vertex="1" parent="1">
          <mxGeometry x="1362.5" y="760" width="76" height="89" as="geometry" />
        </mxCell>
        <mxCell id="UbuHkIqYk3YwZygsSBv0-13" value="" style="edgeStyle=none;rounded=0;orthogonalLoop=1;jettySize=auto;html=1;startArrow=none;startFill=0;endArrow=none;endFill=0;strokeWidth=2;" edge="1" parent="1" source="UbuHkIqYk3YwZygsSBv0-12" target="6a7d8f32e03d9370-13">
          <mxGeometry relative="1" as="geometry" />
        </mxCell>
        <mxCell id="UbuHkIqYk3YwZygsSBv0-12" value="" style="verticalLabelPosition=bottom;aspect=fixed;html=1;verticalAlign=top;strokeColor=none;shape=mxgraph.citrix.switch;fillColor=#66B2FF;gradientColor=#0066CC;fontSize=14;" vertex="1" parent="1">
          <mxGeometry x="1148" y="563.5" width="92" height="41.5" as="geometry" />
        </mxCell>
        <mxCell id="UbuHkIqYk3YwZygsSBv0-15" value="" style="edgeStyle=none;rounded=0;orthogonalLoop=1;jettySize=auto;html=1;startArrow=none;startFill=0;endArrow=none;endFill=0;strokeWidth=1;" edge="1" parent="1" source="UbuHkIqYk3YwZygsSBv0-14" target="UbuHkIqYk3YwZygsSBv0-12">
          <mxGeometry relative="1" as="geometry" />
        </mxCell>
        <mxCell id="UbuHkIqYk3YwZygsSBv0-14" value="10.101.99.205" style="verticalLabelPosition=top;aspect=fixed;html=1;verticalAlign=bottom;strokeColor=none;shape=mxgraph.citrix.thin_client;fillColor=#66B2FF;gradientColor=#0066CC;fontSize=14;labelPosition=center;align=center;" vertex="1" parent="1">
          <mxGeometry x="1362.5" y="552.5" width="71" height="71" as="geometry" />
        </mxCell>
        <mxCell id="UbuHkIqYk3YwZygsSBv0-17" value="" style="edgeStyle=none;rounded=0;orthogonalLoop=1;jettySize=auto;html=1;startArrow=none;startFill=0;endArrow=none;endFill=0;strokeWidth=1;" edge="1" parent="1" source="UbuHkIqYk3YwZygsSBv0-16" target="UbuHkIqYk3YwZygsSBv0-7">
          <mxGeometry relative="1" as="geometry">
            <mxPoint x="1249.5" y="999.5" as="targetPoint" />
          </mxGeometry>
        </mxCell>
        <mxCell id="UbuHkIqYk3YwZygsSBv0-16" value="10.10.204.36" style="verticalLabelPosition=bottom;aspect=fixed;html=1;verticalAlign=top;strokeColor=none;shape=mxgraph.citrix.xenapp_server;fillColor=#66B2FF;gradientColor=#0066CC;fontSize=14;" vertex="1" parent="1">
          <mxGeometry x="1365" y="906" width="76" height="89" as="geometry" />
        </mxCell>
        <mxCell id="UbuHkIqYk3YwZygsSBv0-19" value="" style="edgeStyle=none;rounded=0;orthogonalLoop=1;jettySize=auto;html=1;startArrow=none;startFill=0;endArrow=none;endFill=0;strokeWidth=2;entryX=0.142;entryY=0.539;entryDx=0;entryDy=0;entryPerimeter=0;" edge="1" parent="1" source="UbuHkIqYk3YwZygsSBv0-18" target="6a7d8f32e03d9370-10">
          <mxGeometry relative="1" as="geometry">
            <mxPoint x="520" y="528.5" as="targetPoint" />
          </mxGeometry>
        </mxCell>
        <mxCell id="UbuHkIqYk3YwZygsSBv0-18" value="Client" style="verticalLabelPosition=bottom;aspect=fixed;html=1;verticalAlign=top;strokeColor=none;shape=mxgraph.citrix.pda;fillColor=#66B2FF;gradientColor=#0066CC;fontSize=14;" vertex="1" parent="1">
          <mxGeometry x="177.5" y="358" width="30" height="61" as="geometry" />
        </mxCell>
        <mxCell id="UbuHkIqYk3YwZygsSBv0-20" value="" style="verticalLabelPosition=bottom;aspect=fixed;html=1;verticalAlign=top;strokeColor=none;align=center;outlineConnect=0;shape=mxgraph.citrix.podio;fillColor=#72B8DE;gradientColor=#186BA2;gradientDirection=south;" vertex="1" parent="1">
          <mxGeometry x="33.5" y="433" width="67" height="67" as="geometry" />
        </mxCell>
        <mxCell id="UbuHkIqYk3YwZygsSBv0-27" value="List" style="swimlane;fontStyle=0;childLayout=stackLayout;horizontal=1;startSize=26;fillColor=none;horizontalStack=0;resizeParent=1;resizeParentMax=0;resizeLast=0;collapsible=1;marginBottom=0;dashed=1;fontColor=#0000FF;" vertex="1" parent="1">
          <mxGeometry x="540" y="320" width="140" height="104" as="geometry">
            <mxRectangle x="540" y="320" width="50" height="26" as="alternateBounds" />
          </mxGeometry>
        </mxCell>
        <mxCell id="UbuHkIqYk3YwZygsSBv0-28" value="223.104.63.10" style="text;strokeColor=none;fillColor=none;align=left;verticalAlign=top;spacingLeft=4;spacingRight=4;overflow=hidden;rotatable=0;points=[[0,0.5],[1,0.5]];portConstraint=eastwest;fontColor=#0000FF;" vertex="1" parent="UbuHkIqYk3YwZygsSBv0-27">
          <mxGeometry y="26" width="140" height="26" as="geometry" />
        </mxCell>
        <mxCell id="UbuHkIqYk3YwZygsSBv0-29" value="223.104.63.11" style="text;strokeColor=none;fillColor=none;align=left;verticalAlign=top;spacingLeft=4;spacingRight=4;overflow=hidden;rotatable=0;points=[[0,0.5],[1,0.5]];portConstraint=eastwest;fontColor=#0000FF;" vertex="1" parent="UbuHkIqYk3YwZygsSBv0-27">
          <mxGeometry y="52" width="140" height="26" as="geometry" />
        </mxCell>
        <mxCell id="UbuHkIqYk3YwZygsSBv0-30" value="117.136.40.201" style="text;strokeColor=none;fillColor=none;align=left;verticalAlign=top;spacingLeft=4;spacingRight=4;overflow=hidden;rotatable=0;points=[[0,0.5],[1,0.5]];portConstraint=eastwest;fontColor=#0000FF;" vertex="1" parent="UbuHkIqYk3YwZygsSBv0-27">
          <mxGeometry y="78" width="140" height="26" as="geometry" />
        </mxCell>
        <mxCell id="UbuHkIqYk3YwZygsSBv0-31" value="List" style="swimlane;fontStyle=0;childLayout=stackLayout;horizontal=1;startSize=26;fillColor=none;horizontalStack=0;resizeParent=1;resizeParentMax=0;resizeLast=0;collapsible=1;marginBottom=0;dashed=1;fontColor=#0000FF;" vertex="1" parent="1">
          <mxGeometry x="520" y="970" width="140" height="104" as="geometry">
            <mxRectangle x="540" y="320" width="50" height="26" as="alternateBounds" />
          </mxGeometry>
        </mxCell>
        <mxCell id="UbuHkIqYk3YwZygsSBv0-32" value="113.64.1.1" style="text;strokeColor=none;fillColor=none;align=left;verticalAlign=top;spacingLeft=4;spacingRight=4;overflow=hidden;rotatable=0;points=[[0,0.5],[1,0.5]];portConstraint=eastwest;fontColor=#0000FF;" vertex="1" parent="UbuHkIqYk3YwZygsSBv0-31">
          <mxGeometry y="26" width="140" height="26" as="geometry" />
        </mxCell>
        <mxCell id="UbuHkIqYk3YwZygsSBv0-33" value="113.64.1.2" style="text;strokeColor=none;fillColor=none;align=left;verticalAlign=top;spacingLeft=4;spacingRight=4;overflow=hidden;rotatable=0;points=[[0,0.5],[1,0.5]];portConstraint=eastwest;fontColor=#0000FF;" vertex="1" parent="UbuHkIqYk3YwZygsSBv0-31">
          <mxGeometry y="52" width="140" height="26" as="geometry" />
        </mxCell>
        <mxCell id="UbuHkIqYk3YwZygsSBv0-34" value="183.0.0.1" style="text;strokeColor=none;fillColor=none;align=left;verticalAlign=top;spacingLeft=4;spacingRight=4;overflow=hidden;rotatable=0;points=[[0,0.5],[1,0.5]];portConstraint=eastwest;fontColor=#0000FF;" vertex="1" parent="UbuHkIqYk3YwZygsSBv0-31">
          <mxGeometry y="78" width="140" height="26" as="geometry" />
        </mxCell>
        <mxCell id="UbuHkIqYk3YwZygsSBv0-37" value="" style="edgeStyle=none;rounded=0;orthogonalLoop=1;jettySize=auto;html=1;startArrow=none;startFill=0;endArrow=none;endFill=0;strokeWidth=2;fontColor=#0000FF;entryX=0.207;entryY=0.47;entryDx=0;entryDy=0;entryPerimeter=0;" edge="1" parent="1" source="UbuHkIqYk3YwZygsSBv0-35" target="UbuHkIqYk3YwZygsSBv0-7">
          <mxGeometry relative="1" as="geometry" />
        </mxCell>
        <mxCell id="UbuHkIqYk3YwZygsSBv0-35" value="218.17.23.119" style="verticalLabelPosition=bottom;aspect=fixed;html=1;verticalAlign=top;strokeColor=none;shape=mxgraph.citrix.router;fillColor=#66B2FF;gradientColor=#0066CC;fontSize=14;fontColor=#0000FF;" vertex="1" parent="1">
          <mxGeometry x="1020" y="771.5" width="55" height="36.5" as="geometry" />
        </mxCell>
        <mxCell id="UbuHkIqYk3YwZygsSBv0-36" value="" style="edgeStyle=none;rounded=0;orthogonalLoop=1;jettySize=auto;html=1;startArrow=classic;startFill=1;endArrow=classic;endFill=1;strokeWidth=2;" edge="1" parent="1" source="UbuHkIqYk3YwZygsSBv0-35" target="UbuHkIqYk3YwZygsSBv0-23">
          <mxGeometry relative="1" as="geometry">
            <mxPoint x="1030" y="552.4495871559634" as="sourcePoint" />
            <mxPoint x="920" y="580.6479357798166" as="targetPoint" />
          </mxGeometry>
        </mxCell>
      </root>
    </mxGraphModel>
  </diagram>
</mxfile>
